<svg xmlns="http://www.w3.org/2000/svg" width="64" height="64" viewBox="0 0 64 64" fill="none"><script xmlns=""/>
<g clip-path="url(#clip0_199_10263)">
<path d="M32 64C49.6731 64 64 49.6731 64 32C64 14.3269 49.6731 0 32 0C14.3269 0 0 14.3269 0 32C0 49.6731 14.3269 64 32 64Z" fill="white"/>
<path d="M0 32.0004C0 43.8671 6.46667 54.2004 16 59.7338V4.26709C6.46667 9.80042 0 20.1338 0 32.0004Z" fill="#F0263C"/>
<path d="M48 4.26709V59.6671C57.5333 54.2004 64 43.8671 64 32.0004C64 20.1338 57.5333 9.80042 48 4.26709Z" fill="#F0263C"/>
<path d="M46.6663 32.0002L43.9997 30.6668L45.333 26.6668L41.333 28.0002L39.9997 25.3335L35.9997 29.3335L37.333 21.3335L34.733 22.6668L31.9997 17.3335L29.2663 22.6668L26.6663 21.3335L27.9997 29.3335L23.9997 25.3335L22.6663 28.0002L18.6663 26.6668L19.9997 30.6668L17.333 32.0002L25.333 38.6668L23.9997 41.3335L30.6663 40.0002V46.6668H33.333V40.0002L39.9997 41.3335L38.6663 38.6668L46.6663 32.0002Z" fill="#F0263C"/>
</g>
<defs>
<clipPath id="clip0_199_10263">
<rect width="64" height="64" fill="white"/>
</clipPath>
</defs>
<script xmlns=""/></svg>