<svg xmlns="http://www.w3.org/2000/svg" width="64" height="64" viewBox="0 0 64 64" fill="none"><script xmlns=""/>
<g clip-path="url(#clip0_436_828)">
<path d="M32 64C49.6731 64 64 49.6731 64 32C64 14.3269 49.6731 0 32 0C14.3269 0 0 14.3269 0 32C0 49.6731 14.3269 64 32 64Z" fill="#231D9A"/>
<path d="M35.1811 11.1825L31.999 8.00049L28.817 11.1825L31.999 14.3645L35.1811 11.1825Z" fill="#FFD400"/>
<path d="M24.5687 13.5717L21.3867 10.3896L18.2047 13.5717L21.3867 16.7537L24.5687 13.5717Z" fill="#FFD400"/>
<path d="M16.7523 21.3878L13.5703 18.2058L10.3883 21.3878L13.5703 24.5699L16.7523 21.3878Z" fill="#FFD400"/>
<path d="M14.3656 32.0001L11.1836 28.8181L8.00157 32.0001L11.1836 35.1822L14.3656 32.0001Z" fill="#FFD400"/>
<path d="M16.7758 42.6515L13.5938 39.4695L10.4117 42.6515L13.5938 45.8335L16.7758 42.6515Z" fill="#FFD400"/>
<path d="M24.5346 50.4035L21.3525 47.2214L18.1705 50.4035L21.3525 53.5855L24.5346 50.4035Z" fill="#FFD400"/>
<path d="M42.7553 53.5856L39.5732 50.4036L42.7553 47.2215L45.9373 50.4036L42.7553 53.5856Z" fill="#FFD400"/>
<path d="M35.1811 52.818L31.999 49.636L28.817 52.818L31.999 56L35.1811 52.818Z" fill="#FFD400"/>
<path d="M53.6039 42.6139L50.4219 39.4319L47.2398 42.6139L50.4219 45.7959L53.6039 42.6139Z" fill="#FFD400"/>
<path d="M55.9994 32.0001L52.8174 28.8181L49.6354 32.0001L52.8174 35.1822L55.9994 32.0001Z" fill="#FFD400"/>
<path d="M53.5863 21.3546L50.4043 18.1726L47.2223 21.3546L50.4043 24.5367L53.5863 21.3546Z" fill="#FFD400"/>
<path d="M45.8353 13.5941L42.6533 10.4121L39.4713 13.5941L42.6533 16.7762L45.8353 13.5941Z" fill="#FFD400"/>
</g>
<defs>
<clipPath id="clip0_436_828">
<rect width="64" height="64" fill="white"/>
</clipPath>
</defs>
<script xmlns=""/></svg>