<svg xmlns="http://www.w3.org/2000/svg" width="64" height="64" viewBox="0 0 64 64" fill="none"><script xmlns=""/>
<g clip-path="url(#clip0_199_9547)">
<path d="M21.3333 62.1998V1.7998C8.93333 6.1998 0 18.0665 0 31.9998C0 45.9331 8.93333 57.7998 21.3333 62.1998Z" fill="#005B13"/>
<path d="M42.6663 1.8C39.333 0.666667 35.733 0 31.9997 0C28.2663 0 24.6663 0.666667 21.333 1.8V62.1333C24.6663 63.3333 28.2663 64 31.9997 64C35.733 64 39.333 63.3333 42.6663 62.2V1.8Z" fill="white"/>
<path d="M42.667 1.7998V62.1331C55.067 57.7998 64.0003 45.9331 64.0003 31.9998C64.0003 18.0665 55.067 6.1998 42.667 1.7998Z" fill="#005B13"/>
</g>
<defs>
<clipPath id="clip0_199_9547">
<rect width="64" height="64" fill="white"/>
</clipPath>
</defs>
<script xmlns=""/></svg>